<svg width="61" height="72" viewBox="0 0 61 72" fill="none" xmlns="http://www.w3.org/2000/svg">
<path fill-rule="evenodd" clip-rule="evenodd" d="M49.3867 12.5829C46.9556 16.7824 43.3282 22.7233 39.4457 29.082L39.4454 29.0824L39.4454 29.0826L39.4452 29.0829V29.0829C39.2934 29.3314 39.4723 29.6503 39.7636 29.6503H55.7601C56.6872 29.6503 57.4388 30.4019 57.4388 31.329C57.4388 32.2562 56.6872 33.0078 55.7601 33.0078L37.6113 33.0078C37.2626 33.0078 36.9391 33.1894 36.7576 33.4872C35.5703 35.4351 34.3794 37.3935 33.2104 39.3263C32.8077 39.9922 33.2875 40.8419 34.0658 40.8419H49.6516C50.5788 40.8419 51.3304 41.5935 51.3304 42.5207C51.3304 43.4478 50.5788 44.1994 49.6516 44.1994L30.8473 44.1994C30.4953 44.1994 30.1692 44.3846 29.9889 44.6869C28.5233 47.1444 27.1387 49.4976 25.8946 51.6624C25.5127 52.3269 25.9938 53.153 26.7601 53.153H42.4325C43.3597 53.153 44.1113 53.9046 44.1113 54.8317C44.1113 55.7589 43.3597 56.5105 42.4325 56.5105L23.7742 56.5105C23.4071 56.5105 23.0692 56.7114 22.8959 57.035C22.1673 58.3949 21.556 59.5957 21.0896 60.5982C20.9053 60.9943 21.031 61.4803 21.3646 61.7625C47.5867 83.9418 57.3908 46.5495 59.4528 36.5498C61.0014 29.0398 60.7647 10.6355 59.5652 1.54155C59.5031 1.07131 59.1026 0.715853 58.6289 0.692179C23.9866 -1.03908 7.42229 13.6634 3.40387 21.3651C3.37654 21.4175 3.34715 21.4636 3.3117 21.5109C0.564418 25.1737 -1.24755 32.6324 3.36457 41.0264C11.3283 55.5203 9.6619 59.2346 8.3951 62.0583C8.25966 62.3602 8.12879 62.6519 8.01474 62.9456C4.68277 71.5239 6.90408 72.1787 9.1254 70.2202C11.812 67.2925 15.2209 62.424 18.9514 56.608C19.202 56.2172 19.1143 55.7084 18.9798 55.264C18.9664 55.2197 18.9548 55.1745 18.9449 55.1285L11.7643 21.5677C11.5718 20.6676 12.1448 19.7796 13.0442 19.5842C13.9436 19.3888 14.8289 19.96 15.0215 20.86L21.2092 49.7804C21.3975 50.6605 22.5599 50.8624 23.0309 50.0955C24.3755 47.9062 25.7413 45.6464 27.1121 43.3567C27.2956 43.0502 27.2683 42.6696 27.1936 42.3203V42.3203L21.5429 15.9101C21.3503 15.01 21.9233 14.122 22.8228 13.9266C23.7222 13.7312 24.6074 14.3024 24.8 15.2025L29.3078 36.2712C29.4983 37.1612 30.6814 37.3545 31.1444 36.5709C31.9482 35.2107 32.7481 33.8539 33.5408 32.5086C33.6975 32.2427 33.6837 31.9162 33.6192 31.6144V31.6144L29.2485 11.1866C29.0559 10.2865 29.6289 9.39848 30.5283 9.20308C31.4278 9.00768 32.313 9.5789 32.5056 10.4789L35.7034 25.4247C35.894 26.3155 37.0796 26.5085 37.5437 25.7245C41.5684 18.9257 45.2298 12.8543 48.0295 8.74598C48.1865 8.51551 48.4336 8.35542 48.7123 8.34649C50.3737 8.29329 51.1796 9.48581 49.3867 12.5829Z" fill="white"/>
</svg>
